<svg width="372" height="46" viewBox="0 0 372 46" fill="none" xmlns="http://www.w3.org/2000/svg">
<path d="M0 14.9124L224.754 14.9124L236.921 27.1971H258.214M319.286 27.1971H258.214M258.214 27.1971L269.914 16.1168H303.608M337.303 16.1168H303.608M303.608 16.1168L315.542 6.00004H360M0 27.1971H224.754L236.921 39H258.214H319.286H355.32" stroke="#004CAA" stroke-width="3"/>
<path d="M361.078 3.94963C362.241 1.75313 364.964 0.915108 367.16 2.07786C369.357 3.24062 370.195 5.96384 369.032 8.16034C367.869 10.3568 365.146 11.1949 362.95 10.0321C360.753 8.86935 359.915 6.14613 361.078 3.94963Z" stroke="#004AAC" stroke-width="3"/>
<path d="M338.078 13.9496C339.241 11.7531 341.964 10.9151 344.16 12.0779C346.357 13.2406 347.195 15.9638 346.032 18.1603C344.869 20.3568 342.146 21.1949 339.95 20.0321C337.753 18.8693 336.915 16.1461 338.078 13.9496Z" stroke="#004AAC" stroke-width="3"/>
<path d="M320.078 24.9496C321.241 22.7531 323.964 21.9151 326.16 23.0779C328.357 24.2406 329.195 26.9638 328.032 29.1603C326.869 31.3568 324.146 32.1949 321.95 31.0321C319.753 29.8694 318.915 27.1461 320.078 24.9496Z" stroke="#004AAC" stroke-width="3"/>
<path d="M355.078 36.9496C356.241 34.7531 358.964 33.9151 361.16 35.0779C363.357 36.2406 364.195 38.9638 363.032 41.1603C361.869 43.3568 359.146 44.1949 356.95 43.0321C354.753 41.8694 353.915 39.1461 355.078 36.9496Z" stroke="#004AAC" stroke-width="3"/>
</svg>
