<svg width="193" height="47" viewBox="0 0 193 47" fill="none" xmlns="http://www.w3.org/2000/svg">
<path d="M3.88529 19C3.2407 19 2.64701 18.8389 2.1042 18.5166C1.57835 18.1943 1.15428 17.7702 0.831984 17.2443C0.50969 16.7015 0.348544 16.1078 0.348544 15.4633V14.0638H3.70718V15.3106C3.70718 15.3954 3.73262 15.4717 3.78351 15.5396C3.85136 15.5905 3.9277 15.6159 4.01251 15.6159H14.979C15.0638 15.6159 15.1316 15.5905 15.1825 15.5396C15.2504 15.4717 15.2843 15.3954 15.2843 15.3106V11.8247C15.2843 11.7399 15.2504 11.6721 15.1825 11.6212C15.1316 11.5703 15.0638 11.5448 14.979 11.5448H3.88529C3.2407 11.5448 2.64701 11.3837 2.1042 11.0614C1.57835 10.7391 1.15428 10.315 0.831984 9.78919C0.50969 9.24638 0.348544 8.6442 0.348544 7.98265V4.21691C0.348544 3.57232 0.50969 2.9871 0.831984 2.46126C1.15428 1.91845 1.57835 1.48589 2.1042 1.1636C2.64701 0.841308 3.2407 0.680161 3.88529 0.680161H15.1316C15.7762 0.680161 16.3614 0.841308 16.8873 1.1636C17.4301 1.48589 17.8626 1.91845 18.1849 2.46126C18.5072 2.9871 18.6684 3.57232 18.6684 4.21691V5.61634H15.2843V4.36957C15.2843 4.28476 15.2504 4.21691 15.1825 4.16602C15.1316 4.09817 15.0638 4.06424 14.979 4.06424H4.01251C3.9277 4.06424 3.85136 4.09817 3.78351 4.16602C3.73262 4.21691 3.70718 4.28476 3.70718 4.36957V7.85543C3.70718 7.94025 3.73262 8.0081 3.78351 8.05899C3.85136 8.10987 3.9277 8.13532 4.01251 8.13532H15.1316C15.7762 8.13532 16.3614 8.29646 16.8873 8.61876C17.4301 8.94105 17.8626 9.3736 18.1849 9.91641C18.5072 10.4423 18.6684 11.036 18.6684 11.6975V15.4633C18.6684 16.1078 18.5072 16.7015 18.1849 17.2443C17.8626 17.7702 17.4301 18.1943 16.8873 18.5166C16.3614 18.8389 15.7762 19 15.1316 19H3.88529ZM36.0512 19L30.5298 12.4099H34.9316L39.7151 18.0586V19H36.0512ZM21.4462 19V0.705605H36.2038C36.8484 0.705605 37.4421 0.866752 37.9849 1.18905C38.5277 1.51134 38.9603 1.94389 39.2826 2.4867C39.6049 3.01255 39.766 3.59776 39.766 4.24235V9.17853C39.766 9.82312 39.6049 10.4168 39.2826 10.9596C38.9603 11.5024 38.5277 11.935 37.9849 12.2573C37.4421 12.5626 36.8484 12.7153 36.2038 12.7153L24.8048 12.7407V19H21.4462ZM25.1101 9.3312H36.0512C36.136 9.3312 36.2123 9.30575 36.2802 9.25486C36.348 9.20398 36.3819 9.13612 36.3819 9.05131V4.36957C36.3819 4.28476 36.348 4.21691 36.2802 4.16602C36.2123 4.09817 36.136 4.06424 36.0512 4.06424H25.1101C25.0253 4.06424 24.949 4.09817 24.8811 4.16602C24.8303 4.21691 24.8048 4.28476 24.8048 4.36957V9.05131C24.8048 9.13612 24.8303 9.20398 24.8811 9.25486C24.949 9.30575 25.0253 9.3312 25.1101 9.3312ZM42.4426 19V0.680161H46.132L52.773 8.59331L59.3885 0.680161H63.1033V19H59.7193V5.56545L52.773 13.8348L45.8013 5.5909V19H42.4426ZM20.2897 47L12.9566 38.2476H18.8028L25.1559 45.7497V47H20.2897ZM0.892414 47V22.7028H20.4924C21.3485 22.7028 22.137 22.9168 22.8579 23.3448C23.5789 23.7729 24.1533 24.3474 24.5814 25.0683C25.0094 25.7667 25.2234 26.5439 25.2234 27.4V33.9559C25.2234 34.812 25.0094 35.6005 24.5814 36.3214C24.1533 37.0423 23.5789 37.6168 22.8579 38.0448C22.137 38.4503 21.3485 38.6531 20.4924 38.6531L5.3531 38.6869V47H0.892414ZM5.75862 34.1586H20.2897C20.4023 34.1586 20.5037 34.1248 20.5938 34.0572C20.6839 33.9897 20.729 33.8995 20.729 33.7869V27.569C20.729 27.4563 20.6839 27.3662 20.5938 27.2986C20.5037 27.2085 20.4023 27.1634 20.2897 27.1634H5.75862C5.64598 27.1634 5.5446 27.2085 5.45448 27.2986C5.3869 27.3662 5.3531 27.4563 5.3531 27.569V33.7869C5.3531 33.8995 5.3869 33.9897 5.45448 34.0572C5.5446 34.1248 5.64598 34.1586 5.75862 34.1586ZM33.408 47C32.5519 47 31.7634 46.786 31.0425 46.3579C30.3441 45.9299 29.7809 45.3667 29.3528 44.6683C28.9248 43.9474 28.7107 43.1589 28.7107 42.3028V27.3662C28.7107 26.5101 28.9248 25.7329 29.3528 25.0345C29.7809 24.3136 30.3441 23.7391 31.0425 23.311C31.7634 22.883 32.5519 22.669 33.408 22.669H48.3445C49.2006 22.669 49.9779 22.883 50.6763 23.311C51.3972 23.7391 51.9717 24.3136 52.3997 25.0345C52.8277 25.7329 53.0418 26.5101 53.0418 27.3662V42.3028C53.0418 43.1589 52.8277 43.9474 52.3997 44.6683C51.9717 45.3667 51.3972 45.9299 50.6763 46.3579C49.9779 46.786 49.2006 47 48.3445 47H33.408ZM33.5769 42.5055H48.108C48.2206 42.5055 48.322 42.4717 48.4121 42.4041C48.5022 42.314 48.5473 42.2126 48.5473 42.1V27.569C48.5473 27.4563 48.5022 27.3662 48.4121 27.2986C48.322 27.2085 48.2206 27.1634 48.108 27.1634H33.5769C33.4643 27.1634 33.3629 27.2085 33.2728 27.2986C33.2052 27.3662 33.1714 27.4563 33.1714 27.569V42.1C33.1714 42.2126 33.2052 42.314 33.2728 42.4041C33.3629 42.4717 33.4643 42.5055 33.5769 42.5055ZM56.8646 47V22.669H75.5184C76.3745 22.669 77.1517 22.883 77.8501 23.311C78.5711 23.7391 79.1455 24.3136 79.5736 25.0345C80.0016 25.7329 80.2157 26.5101 80.2157 27.3662V32.131C80.2157 32.4239 80.1931 32.7055 80.1481 32.9759C80.103 33.2462 80.0242 33.5053 79.9115 33.7531C80.2945 34.2713 80.5986 34.812 80.8239 35.3752C81.0717 35.9384 81.1957 36.5016 81.1957 37.0648V42.3028C81.1957 43.1589 80.9816 43.9474 80.5536 44.6683C80.1255 45.3667 79.5511 45.9299 78.8301 46.3579C78.1092 46.786 77.3207 47 76.4646 47H56.8646ZM61.7308 42.5055H76.2619C76.3745 42.5055 76.4759 42.4717 76.566 42.4041C76.6561 42.314 76.7012 42.2126 76.7012 42.1V37.2676C76.7012 37.1549 76.6561 37.0648 76.566 36.9972C76.4759 36.9071 76.3745 36.8621 76.2619 36.8621H61.7308C61.6182 36.8621 61.5168 36.9071 61.4267 36.9972C61.3591 37.0648 61.3253 37.1549 61.3253 37.2676V42.1C61.3253 42.2126 61.3591 42.314 61.4267 42.4041C61.5168 42.4717 61.6182 42.5055 61.7308 42.5055ZM61.7308 32.3676H75.3157C75.4283 32.3676 75.5184 32.3338 75.586 32.2662C75.6536 32.1761 75.6874 32.0747 75.6874 31.9621V27.569C75.6874 27.4563 75.6536 27.3662 75.586 27.2986C75.5184 27.2085 75.4283 27.1634 75.3157 27.1634H61.7308C61.6182 27.1634 61.5168 27.2085 61.4267 27.2986C61.3591 27.3662 61.3253 27.4563 61.3253 27.569V31.9621C61.3253 32.0747 61.3591 32.1761 61.4267 32.2662C61.5168 32.3338 61.6182 32.3676 61.7308 32.3676ZM89.5098 47C88.6537 47 87.8652 46.786 87.1443 46.3579C86.4459 45.9299 85.8827 45.3667 85.4546 44.6683C85.0266 43.9474 84.8126 43.1589 84.8126 42.3028V27.3662C84.8126 26.5101 85.0266 25.7329 85.4546 25.0345C85.8827 24.3136 86.4459 23.7391 87.1443 23.311C87.8652 22.883 88.6537 22.669 89.5098 22.669H104.446C105.302 22.669 106.08 22.883 106.778 23.311C107.499 23.7391 108.073 24.3136 108.502 25.0345C108.93 25.7329 109.144 26.5101 109.144 27.3662V42.3028C109.144 43.1589 108.93 43.9474 108.502 44.6683C108.073 45.3667 107.499 45.9299 106.778 46.3579C106.08 46.786 105.302 47 104.446 47H89.5098ZM89.6788 42.5055H104.21C104.322 42.5055 104.424 42.4717 104.514 42.4041C104.604 42.314 104.649 42.2126 104.649 42.1V27.569C104.649 27.4563 104.604 27.3662 104.514 27.2986C104.424 27.2085 104.322 27.1634 104.21 27.1634H89.6788C89.5661 27.1634 89.4648 27.2085 89.3746 27.2986C89.307 27.3662 89.2733 27.4563 89.2733 27.569V42.1C89.2733 42.2126 89.307 42.314 89.3746 42.4041C89.4648 42.4717 89.5661 42.5055 89.6788 42.5055ZM117.562 47C116.706 47 115.918 46.786 115.197 46.3579C114.498 45.9299 113.935 45.3667 113.507 44.6683C113.079 43.9474 112.865 43.1589 112.865 42.3028V27.3662C112.865 26.5101 113.079 25.7329 113.507 25.0345C113.935 24.3136 114.498 23.7391 115.197 23.311C115.918 22.883 116.706 22.669 117.562 22.669H137.129V27.1634H118.509C118.148 27.1634 117.855 27.2648 117.63 27.4676C117.427 27.6703 117.326 27.9632 117.326 28.3462V41.3228C117.326 41.6832 117.427 41.9761 117.63 42.2014C117.855 42.4041 118.148 42.5055 118.509 42.5055H137.129V47H117.562ZM145.282 47C144.426 47 143.637 46.786 142.916 46.3579C142.218 45.9299 141.654 45.3667 141.226 44.6683C140.798 43.9474 140.584 43.1589 140.584 42.3028V27.3662C140.584 26.5101 140.798 25.7329 141.226 25.0345C141.654 24.3136 142.218 23.7391 142.916 23.311C143.637 22.883 144.426 22.669 145.282 22.669H160.218C161.074 22.669 161.852 22.883 162.55 23.311C163.271 23.7391 163.845 24.3136 164.273 25.0345C164.701 25.7329 164.915 26.5101 164.915 27.3662V42.3028C164.915 43.1589 164.701 43.9474 164.273 44.6683C163.845 45.3667 163.271 45.9299 162.55 46.3579C161.852 46.786 161.074 47 160.218 47H145.282ZM145.451 42.5055H159.982C160.094 42.5055 160.196 42.4717 160.286 42.4041C160.376 42.314 160.421 42.2126 160.421 42.1V27.569C160.421 27.4563 160.376 27.3662 160.286 27.2986C160.196 27.2085 160.094 27.1634 159.982 27.1634H145.451C145.338 27.1634 145.237 27.2085 145.146 27.2986C145.079 27.3662 145.045 27.4563 145.045 27.569V42.1C145.045 42.2126 145.079 42.314 145.146 42.4041C145.237 42.4717 145.338 42.5055 145.451 42.5055ZM168.637 47V22.669H173.537L188.473 40.4441V22.669H192.968V47H188.068L173.098 29.191V47H168.637Z" fill="white"/>
<path d="M80.3901 19V4.06424H72.9095V0.680161H91.2293V4.06424H83.7742V19H80.3901ZM96.5164 19C95.8718 19 95.2866 18.8389 94.7607 18.5166C94.2349 18.1943 93.8108 17.7702 93.4885 17.2443C93.1662 16.7185 93.0051 16.1333 93.0051 15.4887V7.75365C93.0051 7.10907 93.1662 6.52385 93.4885 5.998C93.8108 5.47216 94.2349 5.04808 94.7607 4.72579C95.2866 4.4035 95.8718 4.24235 96.5164 4.24235H104.48C105.125 4.24235 105.71 4.4035 106.236 4.72579C106.779 5.04808 107.203 5.47216 107.508 5.998C107.831 6.52385 107.992 7.10907 107.992 7.75365V13.3005H96.3383V15.3615C96.3383 15.4463 96.3637 15.5226 96.4146 15.5905C96.4824 15.6414 96.5588 15.6668 96.6436 15.6668H107.992V19H96.5164ZM96.3383 10.2981H104.659V7.88088C104.659 7.79606 104.625 7.72821 104.557 7.67732C104.506 7.60947 104.438 7.57554 104.353 7.57554H96.6436C96.5588 7.57554 96.4824 7.60947 96.4146 7.67732C96.3637 7.72821 96.3383 7.79606 96.3383 7.88088V10.2981ZM114.159 19C113.514 19 112.921 18.8389 112.378 18.5166C111.852 18.1943 111.428 17.7702 111.106 17.2443C110.8 16.7185 110.648 16.1333 110.648 15.4887V9.94186H122.301V7.88088C122.301 7.79606 122.267 7.72821 122.199 7.67732C122.148 7.60947 122.081 7.57554 121.996 7.57554H110.648V4.24235H122.123C122.768 4.24235 123.353 4.4035 123.879 4.72579C124.421 5.04808 124.846 5.47216 125.151 5.998C125.473 6.52385 125.634 7.10907 125.634 7.75365V19H114.159ZM114.286 15.6668H122.301V12.9443H113.981V15.3615C113.981 15.4463 114.006 15.5226 114.057 15.5905C114.125 15.6414 114.201 15.6668 114.286 15.6668ZM127.719 19V4.24235H146.014C146.675 4.24235 147.269 4.4035 147.795 4.72579C148.321 5.04808 148.736 5.47216 149.042 5.998C149.364 6.52385 149.525 7.10907 149.525 7.75365V19H146.217V7.88088C146.217 7.79606 146.183 7.72821 146.115 7.67732C146.048 7.60947 145.971 7.57554 145.886 7.57554H140.62C140.535 7.57554 140.458 7.60947 140.391 7.67732C140.34 7.72821 140.314 7.79606 140.314 7.88088V19H136.956V7.88088C136.956 7.79606 136.922 7.72821 136.854 7.67732C136.803 7.60947 136.735 7.57554 136.65 7.57554H131.358C131.273 7.57554 131.197 7.60947 131.129 7.67732C131.078 7.72821 131.053 7.79606 131.053 7.88088V19H127.719Z" fill="#878787"/>
</svg>
