<svg width="194" height="46" viewBox="0 0 194 46" fill="none" xmlns="http://www.w3.org/2000/svg">
<path d="M0.348544 18V14.1325H11.8748C12.4515 14.1325 12.9519 14.0222 13.376 13.8017C13.8001 13.5642 14.0121 13.1826 14.0121 12.6567C14.0121 12.2157 13.8509 11.8849 13.5287 11.6644C13.2064 11.4439 12.8162 11.2997 12.3582 11.2318H6.45516C5.62398 11.2318 4.85217 11.1301 4.13973 10.9265C3.42729 10.706 2.79967 10.3837 2.25686 9.95963C1.73101 9.53556 1.29846 9.01819 0.959205 8.40753C0.619949 7.7799 0.416395 7.06747 0.348544 6.27021V5.53233C0.450321 4.73508 0.662356 4.03112 0.984649 3.42046C1.32391 2.79284 1.75646 2.27547 2.2823 1.86836C2.80815 1.44429 3.41881 1.122 4.11429 0.901483C4.82673 0.680966 5.60702 0.570708 6.45516 0.570708H18.7702V4.43823H7.24393C6.66719 4.43823 6.16679 4.55697 5.74272 4.79445C5.31865 5.01497 5.10661 5.38815 5.10661 5.914C5.10661 6.35503 5.25928 6.69428 5.56461 6.93176C5.8869 7.16924 6.27705 7.31343 6.73504 7.36432H12.6635C13.4947 7.36432 14.2665 7.47457 14.979 7.69509C15.6914 7.89864 16.3106 8.21246 16.8364 8.63653C17.3792 9.04363 17.8118 9.561 18.1341 10.1886C18.4733 10.7993 18.6853 11.5032 18.7702 12.3005V13.0384C18.6684 13.8356 18.4479 14.5481 18.1086 15.1757C17.7863 15.7864 17.3622 16.3037 16.8364 16.7278C16.3106 17.1349 15.6914 17.4487 14.979 17.6692C14.2665 17.8897 13.4947 18 12.6635 18H0.348544ZM21.4692 18V7.36432H32.9955C33.5722 7.36432 34.0726 7.25406 34.4967 7.03354C34.9207 6.79606 35.1328 6.42288 35.1328 5.914C35.1328 5.38815 34.9207 5.01497 34.4967 4.79445C34.0726 4.55697 33.5722 4.43823 32.9955 4.43823H21.4692V0.570708H33.7842C34.6154 0.570708 35.3872 0.680966 36.0997 0.901483C36.8121 1.122 37.4312 1.44429 37.9571 1.86836C38.4829 2.27547 38.907 2.79284 39.2293 3.42046C39.5686 4.03112 39.7891 4.73508 39.8908 5.53233V6.27021C39.7382 7.89864 39.0936 9.13693 37.9571 9.98507C36.8206 10.8162 35.277 11.2318 33.3262 11.2318L39.9672 18H34.2422L27.4232 11.2318H26.151V18H21.4692ZM53.709 18L47.2717 7.18621V18H42.5899V0.570708H48.2385L54.7777 11.4608L61.3169 0.570708H66.9655V18H62.2837V7.18621L55.8464 18H53.709ZM0.791035 46V31.8745H16.0993C16.8653 31.8745 17.5299 31.728 18.0931 31.4352C18.6563 31.1198 18.9379 30.6241 18.9379 29.9483C18.9379 29.2499 18.6563 28.7543 18.0931 28.4614C17.5299 28.146 16.8653 27.9883 16.0993 27.9883H0.791035V22.8517H17.1469C18.2508 22.8517 19.2759 22.9982 20.2221 23.291C21.1683 23.5839 21.9906 24.012 22.689 24.5752C23.3874 25.1159 23.9506 25.803 24.3786 26.6366C24.8292 27.4476 25.1221 28.3825 25.2572 29.4414V30.4214C25.0545 32.5841 24.1984 34.2287 22.689 35.3552C21.1795 36.4591 19.1294 37.011 16.5386 37.011L25.3586 46H17.7552L8.69862 37.011H7.00897V46H0.791035ZM28.8419 30.4214V38.4303C28.8419 39.6469 29.0334 40.7283 29.4164 41.6745C29.8219 42.6207 30.3739 43.4205 31.0723 44.0738C31.7932 44.7046 32.6493 45.189 33.6406 45.5269C34.6318 45.8423 35.7245 46 36.9185 46H45.1978C46.3918 46 47.4845 45.8423 48.4757 45.5269C49.467 45.189 50.3231 44.7046 51.044 44.0738C51.7649 43.4205 52.3169 42.6207 52.6999 41.6745C53.1054 40.7283 53.3082 39.6469 53.3082 38.4303V30.4214C53.3082 29.2048 53.1054 28.1347 52.6999 27.211C52.3169 26.2648 51.7649 25.4763 51.044 24.8455C50.3231 24.1922 49.467 23.6966 48.4757 23.3586C47.4845 23.0207 46.3918 22.8517 45.1978 22.8517H36.9185C35.7245 22.8517 34.6318 23.0207 33.6406 23.3586C32.6493 23.6966 31.7932 24.1922 31.0723 24.8455C30.3739 25.4763 29.8219 26.2648 29.4164 27.211C29.0334 28.1347 28.8419 29.2048 28.8419 30.4214ZM47.0902 37.9234C47.0902 38.8922 46.8311 39.6244 46.313 40.12C45.8174 40.6156 45.0964 40.8634 44.1502 40.8634H37.9999C37.0537 40.8634 36.3215 40.6156 35.8033 40.12C35.3077 39.6244 35.0599 38.8922 35.0599 37.9234V30.9283C35.0599 29.9595 35.3077 29.2274 35.8033 28.7317C36.3215 28.2361 37.0537 27.9883 37.9999 27.9883H44.1502C45.0964 27.9883 45.8174 28.2361 46.313 28.7317C46.8311 29.2274 47.0902 29.9595 47.0902 30.9283V37.9234ZM56.8929 46V31.8745H72.8432C73.4515 31.8069 73.9696 31.6154 74.3977 31.3C74.8257 30.9846 75.0398 30.534 75.0398 29.9483C75.0398 29.2499 74.7582 28.7543 74.1949 28.4614C73.6317 28.146 72.9671 27.9883 72.2011 27.9883H56.8929V22.8517H73.2487C74.3526 22.8517 75.3777 22.9982 76.3239 23.291C77.2701 23.5839 78.0924 24.012 78.7908 24.5752C79.4892 25.1159 80.0524 25.803 80.4805 26.6366C80.931 27.4476 81.2239 28.3825 81.3591 29.4414V30.4214C81.1788 32.066 80.6269 33.4177 79.7032 34.4766C80.6044 35.5354 81.1563 36.8533 81.3591 38.4303V39.4103C81.2464 40.4692 80.9648 41.4154 80.5142 42.249C80.0862 43.06 79.5117 43.7471 78.7908 44.3103C78.0924 44.8736 77.2701 45.3016 76.3239 45.5945C75.3777 45.8648 74.3526 46 73.2487 46H56.8929ZM72.8432 37.011H63.1108V40.8634H72.2011C72.9671 40.8634 73.6317 40.717 74.1949 40.4241C74.7582 40.1087 75.0398 39.6131 75.0398 38.9372C75.0398 38.3515 74.8257 37.9122 74.3977 37.6193C73.9696 37.3039 73.4515 37.1011 72.8432 37.011ZM84.9438 30.4214V38.4303C84.9438 39.6469 85.1353 40.7283 85.5183 41.6745C85.9238 42.6207 86.4757 43.4205 87.1741 44.0738C87.895 44.7046 88.7511 45.189 89.7424 45.5269C90.7337 45.8423 91.8263 46 93.0203 46H101.3C102.494 46 103.586 45.8423 104.578 45.5269C105.569 45.189 106.425 44.7046 107.146 44.0738C107.867 43.4205 108.419 42.6207 108.802 41.6745C109.207 40.7283 109.41 39.6469 109.41 38.4303V30.4214C109.41 29.2048 109.207 28.1347 108.802 27.211C108.419 26.2648 107.867 25.4763 107.146 24.8455C106.425 24.1922 105.569 23.6966 104.578 23.3586C103.586 23.0207 102.494 22.8517 101.3 22.8517H93.0203C91.8263 22.8517 90.7337 23.0207 89.7424 23.3586C88.7511 23.6966 87.895 24.1922 87.1741 24.8455C86.4757 25.4763 85.9238 26.2648 85.5183 27.211C85.1353 28.1347 84.9438 29.2048 84.9438 30.4214ZM103.192 37.9234C103.192 38.8922 102.933 39.6244 102.415 40.12C101.919 40.6156 101.198 40.8634 100.252 40.8634H94.1017C93.1555 40.8634 92.4233 40.6156 91.9052 40.12C91.4095 39.6244 91.1617 38.8922 91.1617 37.9234V30.9283C91.1617 29.9595 91.4095 29.2274 91.9052 28.7317C92.4233 28.2361 93.1555 27.9883 94.1017 27.9883H100.252C101.198 27.9883 101.919 28.2361 102.415 28.7317C102.933 29.2274 103.192 29.9595 103.192 30.9283V37.9234ZM131.243 37.9234V37.0448H137.461V38.4303C137.461 39.6469 137.258 40.7283 136.853 41.6745C136.47 42.6207 135.918 43.4205 135.197 44.0738C134.476 44.7046 133.62 45.189 132.628 45.5269C131.637 45.8423 130.545 46 129.351 46H121.071C119.877 46 118.785 45.8423 117.793 45.5269C116.802 45.189 115.946 44.7046 115.225 44.0738C114.527 43.4205 113.975 42.6207 113.569 41.6745C113.186 40.7283 112.995 39.6469 112.995 38.4303V30.4214C112.995 29.2048 113.186 28.1347 113.569 27.211C113.975 26.2648 114.527 25.4763 115.225 24.8455C115.946 24.1922 116.802 23.6966 117.793 23.3586C118.785 23.0207 119.877 22.8517 121.071 22.8517H129.351C130.545 22.8517 131.637 23.0207 132.628 23.3586C133.62 23.6966 134.476 24.1922 135.197 24.8455C135.918 25.4763 136.47 26.2648 136.853 27.211C137.258 28.1347 137.461 29.2048 137.461 30.4214V31.8069H131.243V30.9283C131.243 29.9595 130.984 29.2274 130.466 28.7317C129.97 28.2361 129.249 27.9883 128.303 27.9883H122.153C121.206 27.9883 120.474 28.2361 119.956 28.7317C119.46 29.2274 119.213 29.9595 119.213 30.9283V37.9234C119.213 38.8922 119.46 39.6244 119.956 40.12C120.474 40.6156 121.206 40.8634 122.153 40.8634H128.303C129.249 40.8634 129.97 40.6156 130.466 40.12C130.984 39.6244 131.243 38.8922 131.243 37.9234ZM141.046 30.4214V38.4303C141.046 39.6469 141.237 40.7283 141.62 41.6745C142.026 42.6207 142.578 43.4205 143.276 44.0738C143.997 44.7046 144.853 45.189 145.844 45.5269C146.835 45.8423 147.928 46 149.122 46H157.401C158.595 46 159.688 45.8423 160.679 45.5269C161.671 45.189 162.527 44.7046 163.248 44.0738C163.969 43.4205 164.521 42.6207 164.904 41.6745C165.309 40.7283 165.512 39.6469 165.512 38.4303V30.4214C165.512 29.2048 165.309 28.1347 164.904 27.211C164.521 26.2648 163.969 25.4763 163.248 24.8455C162.527 24.1922 161.671 23.6966 160.679 23.3586C159.688 23.0207 158.595 22.8517 157.401 22.8517H149.122C147.928 22.8517 146.835 23.0207 145.844 23.3586C144.853 23.6966 143.997 24.1922 143.276 24.8455C142.578 25.4763 142.026 26.2648 141.62 27.211C141.237 28.1347 141.046 29.2048 141.046 30.4214ZM159.294 37.9234C159.294 38.8922 159.035 39.6244 158.517 40.12C158.021 40.6156 157.3 40.8634 156.354 40.8634H150.204C149.257 40.8634 148.525 40.6156 148.007 40.12C147.511 39.6244 147.264 38.8922 147.264 37.9234V30.9283C147.264 29.9595 147.511 29.2274 148.007 28.7317C148.525 28.2361 149.257 27.9883 150.204 27.9883H156.354C157.3 27.9883 158.021 28.2361 158.517 28.7317C159.035 29.2274 159.294 29.9595 159.294 30.9283V37.9234ZM193.563 46H187.277L175.314 31.6379V46H169.097V22.8517H175.416L187.345 37.2138V22.8517H193.563V46Z" fill="white"/>
<path d="M99.7494 4.43823H92.8794V18H88.1977V4.43823H81.3278V0.570708H99.7494V4.43823ZM102.448 18H119.089V14.1325H102.448V18ZM102.448 4.43823H119.089V0.570708H102.448V4.43823ZM102.448 11.2318H119.089V7.36432H102.448V11.2318ZM134.757 18L130.278 4.79445L125.826 18H121.144L127.123 0.570708H133.434L139.438 18H134.757ZM152.628 18L146.191 7.18621V18H141.509V0.570708H147.158L153.697 11.4608L160.236 0.570708H165.885V18H161.203V7.18621L154.766 18H152.628Z" fill="#C20000"/>
</svg>
