<svg width="152" height="40" viewBox="0 0 152 40" fill="none" xmlns="http://www.w3.org/2000/svg">
<path d="M0.00365448 20.6565C18.3131 20.6565 45.9349 20.6565 50.9055 20.6565M71 20.6565L86 33.5L119.5 33.5M71 20.6565L142 20.6565M71 20.6565C71 20.6565 51.4142 20.6565 50.9055 20.6565M50.9055 20.6565L65.5037 7.5L104 7.5" stroke="#004CAA" stroke-width="3"/>
<circle cx="125" cy="34" r="4.5" transform="rotate(-90 125 34)" stroke="#004AAC" stroke-width="3"/>
<path d="M150.449 21C150.449 18.5147 148.434 16.5 145.949 16.5C143.464 16.5 141.449 18.5147 141.449 21C141.449 23.4853 143.464 25.5 145.949 25.5C148.434 25.5 150.449 23.4853 150.449 21ZM112.957 6.95094C112.957 4.46565 110.942 2.45094 108.457 2.45094C105.971 2.45094 103.957 4.46565 103.957 6.95094C103.957 9.43622 105.971 11.4509 108.457 11.4509C110.942 11.4509 112.957 9.43622 112.957 6.95094Z" stroke="#004AAC" stroke-width="3"/>
</svg>
