<svg width="83" height="68" viewBox="0 0 83 68" fill="none" xmlns="http://www.w3.org/2000/svg">
<path d="M16.5008 24.7985L40.8363 37.6809L59 28.5L82.5 28.5" stroke="#004CAA" stroke-width="3"/>
<path d="M9.95078 37.1718L39.4352 52.7799L61 40L82.5 40" stroke="#004CAA" stroke-width="3"/>
<path d="M2.43843 33.195C3.60119 30.9985 6.3244 30.1605 8.5209 31.3232C10.7174 32.486 11.5554 35.2092 10.3927 37.4057C9.22992 39.6022 6.5067 40.4402 4.3102 39.2775C2.11369 38.1147 1.27568 35.3915 2.43843 33.195Z" stroke="#004AAC" stroke-width="3"/>
<path d="M8.98842 20.8217C10.1512 18.6252 12.8744 17.7872 15.0709 18.95C17.2674 20.1127 18.1054 22.8359 16.9427 25.0324C15.7799 27.2289 13.0567 28.067 10.8602 26.9042C8.66369 25.7414 7.82567 23.0182 8.98842 20.8217Z" stroke="#004AAC" stroke-width="3"/>
</svg>
