<svg width="202" height="46" viewBox="0 0 202 46" fill="none" xmlns="http://www.w3.org/2000/svg">
<path d="M0 14.9124H54.7537L66.9212 27.1971H88.2143M149.286 27.1971H88.2143M88.2143 27.1971L99.9138 16.1168H133.608M167.303 16.1168H133.608M133.608 16.1168L145.542 6H190M0 27.1971H54.7537L66.9212 39H88.2143H149.286H185.32" stroke="#004CAA" stroke-width="3"/>
<path d="M191.078 3.94963C192.241 1.75313 194.964 0.915108 197.16 2.07786C199.357 3.24062 200.195 5.96383 199.032 8.16034C197.869 10.3568 195.146 11.1949 192.95 10.0321C190.753 8.86935 189.915 6.14613 191.078 3.94963Z" stroke="#004AAC" stroke-width="3"/>
<path d="M168.078 13.9496C169.241 11.7531 171.964 10.9151 174.16 12.0779C176.357 13.2406 177.195 15.9638 176.032 18.1603C174.869 20.3568 172.146 21.1949 169.95 20.0321C167.753 18.8693 166.915 16.1461 168.078 13.9496Z" stroke="#004AAC" stroke-width="3"/>
<path d="M150.078 24.9496C151.241 22.7531 153.964 21.9151 156.16 23.0779C158.357 24.2406 159.195 26.9638 158.032 29.1603C156.869 31.3568 154.146 32.1949 151.95 31.0321C149.753 29.8694 148.915 27.1461 150.078 24.9496Z" stroke="#004AAC" stroke-width="3"/>
<path d="M185.078 36.9496C186.241 34.7531 188.964 33.9151 191.16 35.0779C193.357 36.2406 194.195 38.9638 193.032 41.1603C191.869 43.3568 189.146 44.1949 186.95 43.0321C184.753 41.8694 183.915 39.1461 185.078 36.9496Z" stroke="#004AAC" stroke-width="3"/>
</svg>
