<svg width="120" height="81" viewBox="0 0 120 81" fill="none" xmlns="http://www.w3.org/2000/svg">
<path d="M52.8101 21.8499L73.8102 36.1031L73.8102 56M52.8101 21.8499L35.9257 9.80371M52.8101 21.8499L32.1427 28.1781L11.1427 14.1781M73.8102 56L108 79M73.8102 56L57 44.5" stroke="#004CAA" stroke-width="3"/>
<path d="M29.389 6.16402C28.1026 8.29049 28.7837 11.0571 30.9101 12.3435C33.0366 13.6299 35.8033 12.9489 37.0896 10.8224C38.376 8.69595 37.695 5.92929 35.5685 4.64291C33.4421 3.35653 30.6754 4.03756 29.389 6.16402Z" stroke="#004AAC" stroke-width="3"/>
<path d="M49.2694 38.7905C47.983 40.9169 48.664 43.6836 50.7905 44.97C52.9169 46.2564 55.6836 45.5753 56.97 43.4489C58.2564 41.3224 57.5753 38.5557 55.4489 37.2694C53.3224 35.983 50.5557 36.664 49.2694 38.7905Z" stroke="#004AAC" stroke-width="3"/>
<path d="M2.26936 9.79047C0.982983 11.9169 1.66401 14.6836 3.79047 15.97C5.91694 17.2564 8.68359 16.5753 9.96997 14.4489C11.2564 12.3224 10.5753 9.55574 8.44886 8.26936C6.3224 6.98298 3.55574 7.66401 2.26936 9.79047Z" stroke="#004AAC" stroke-width="3"/>
</svg>
