<svg width="62" height="35" viewBox="0 0 144 83" fill="none" xmlns="http://www.w3.org/2000/svg">
<path d="M66.1733 27.561H67.3199L72.2626 38.6193H70.9456L69.675 35.7183H63.7717L62.4856 38.6193H61.2461L66.1733 27.561ZM69.1947 34.605L66.7311 29.0037L64.252 34.605H69.1947Z" fill="#2B2B2B"/>
<path d="M74.4785 27.6396H75.7026V37.4748H81.8105V38.6195H74.4785V27.6396Z" fill="#2B2B2B"/>
<path d="M85.4641 28.7844H81.8105V27.6396H90.3325V28.7844H86.7037V38.6195H85.4641V28.7844Z" fill="#2B2B2B"/>
<path d="M92.8232 27.6396H94.0473V38.6164H92.8232V27.6396Z" fill="#2B2B2B"/>
<path d="M97.1309 34.025V27.6396H98.3549V33.9466C98.3549 36.3144 99.5945 37.6473 101.671 37.6473C103.669 37.6473 104.94 36.4242 104.94 34.025V27.6396H106.164V33.9309C106.164 37.1299 104.351 38.7921 101.64 38.7921C98.9282 38.7921 97.1309 37.1299 97.1309 34.025Z" fill="#2B2B2B"/>
<path d="M109.139 27.6396H110.379L114.33 33.633L118.281 27.6396H119.521V38.6164H118.297V29.7252L114.349 35.6088H114.287L110.32 29.7409V38.6195H109.127L109.139 27.6396Z" fill="#2B2B2B"/>
<path d="M61.5868 43.3208H65.7703C69.6439 43.3208 71.8906 45.5789 71.8906 48.7465V48.7778C71.8906 51.9485 69.6129 54.3007 65.6928 54.3007H61.5713L61.5868 43.3208ZM65.8168 51.6004C67.6141 51.6004 68.8072 50.5968 68.8072 48.8249V48.7935C68.8072 47.0372 67.6141 46.0179 65.8168 46.0179H64.5927V51.6004H65.8168Z" fill="#2B2B2B"/>
<path d="M73.5186 43.3208H82.2419V45.9082H76.4935V47.5704H81.6996V49.9696H76.4935V51.7102H82.3194V54.3007H73.5186V43.3208Z" fill="#2B2B2B"/>
<path d="M83.1094 52.6696L84.7828 50.6467C85.7698 51.4835 87.0125 51.9488 88.3 51.9639C89.1057 51.9639 89.5396 51.6785 89.5396 51.2081V51.1799C89.5396 50.7251 89.1832 50.4711 87.7112 50.1261C85.4026 49.5929 83.6207 48.9343 83.6207 46.6763V46.6449C83.6207 44.6063 85.2166 43.1323 87.8197 43.1323C89.6635 43.1323 91.1045 43.6341 92.2821 44.5907L90.7791 46.7296C89.8979 46.067 88.8392 45.6898 87.7422 45.6476C87.014 45.6476 86.6576 45.9612 86.6576 46.3532V46.3846C86.6576 46.8864 87.0295 47.1059 88.5324 47.4509C91.027 47.9997 92.5765 48.8152 92.5765 50.8725V50.9007C92.5765 53.1463 90.8256 54.4792 88.1915 54.4792C86.3356 54.5265 84.5272 53.8825 83.1094 52.6696V52.6696Z" fill="#2B2B2B"/>
<path d="M94.1719 43.3208H97.1933V54.2976H94.1719V43.3208Z" fill="#2B2B2B"/>
<path d="M98.8818 48.8406V48.8092C98.8818 45.6103 101.361 43.1013 104.723 43.1013C106.338 43.0461 107.913 43.6184 109.124 44.7008L107.357 46.8491C106.646 46.1804 105.71 45.8105 104.739 45.8141C103.174 45.8141 101.965 47.147 101.965 48.8249V48.8563C101.965 50.6282 103.189 51.9015 104.909 51.9015C105.52 51.929 106.125 51.7694 106.645 51.4437V50.1108H104.506V47.884H109.495V52.8267C108.17 53.9322 106.503 54.5316 104.785 54.5203C101.407 54.5203 98.8818 52.165 98.8818 48.8406Z" fill="#2B2B2B"/>
<path d="M111.25 43.3208H114.039L118.501 49.1228V43.3208H121.476V54.2976H118.842L114.194 48.2729V54.2976H111.25V43.3208Z" fill="#2B2B2B"/>
<path d="M123.487 43.3208H132.211V45.9082H126.462V47.5704H131.668V49.9696H126.462V51.7102H132.288V54.3007H123.487V43.3208Z" fill="#2B2B2B"/>
<path d="M133.899 43.3208H139.028C140.686 43.3208 141.833 43.7599 142.561 44.5126C142.887 44.8482 143.141 45.2486 143.306 45.6886C143.471 46.1286 143.545 46.5985 143.521 47.0686V47.0999C143.546 47.8277 143.344 48.5449 142.943 49.1499C142.543 49.7549 141.965 50.2172 141.29 50.4714L143.878 54.3007H140.407L138.238 50.9732H136.921V54.3007H133.915L133.899 43.3208ZM138.889 48.5896C139.911 48.5896 140.5 48.0878 140.5 47.2881V47.2568C140.5 46.3943 139.88 45.9552 138.873 45.9552H136.905V48.5896H138.889Z" fill="#2B2B2B"/>
<path fill-rule="evenodd" clip-rule="evenodd" d="M12.4947 55.6177V70.3579L3.42428 75.5828C3.08644 75.7715 2.70696 75.8708 2.32108 75.8714C1.72035 75.8679 1.14405 75.6303 0.711836 75.2081C0.27962 74.7858 0.0247008 74.2113 1.23673e-05 73.6039V73.6039V64.4838V64.2141C-0.00142223 63.7663 0.12198 63.3271 0.356044 62.9471C0.590108 62.5671 0.925341 62.2616 1.32324 62.0657L12.4947 55.6177Z" fill="url(#paint0_linear)"/>
<path fill-rule="evenodd" clip-rule="evenodd" d="M3.38713 7.28241C3.43052 7.30436 12.4947 12.592 12.4947 12.592V26.0307C12.493 26.1374 12.4635 26.2418 12.409 26.3332C12.3546 26.4247 12.2773 26.4999 12.1849 26.5513L0.89563 33.244C0.804098 33.2972 0.700307 33.3248 0.594792 33.3242C0.489276 33.3236 0.385792 33.2948 0.294844 33.2407C0.203895 33.1865 0.128719 33.109 0.0769449 33.016C0.0251712 32.9229 -0.00135673 32.8176 5.34259e-05 32.7109V9.33663C0.00892787 8.72092 0.255397 8.13313 0.686794 7.69888C1.11819 7.26463 1.7003 7.01836 2.30872 7.0127C2.59174 7.01263 2.8723 7.0658 3.13612 7.16951L3.38713 7.28241Z" fill="url(#paint1_linear)"/>
<path fill-rule="evenodd" clip-rule="evenodd" d="M2.46355e-09 64.2268V50.1139C-2.1272e-05 49.5847 0.137748 49.0649 0.399429 48.6068C0.66111 48.1487 1.03746 47.7685 1.49056 47.5045L24.0163 34.3826C24.1066 34.3306 24.2088 34.3034 24.3128 34.3037C24.4167 34.3041 24.5187 34.332 24.6086 34.3846C24.6986 34.4373 24.7733 34.5129 24.8255 34.6038C24.8776 34.6948 24.9053 34.798 24.9057 34.9032V48.1161C24.9043 48.2229 24.8749 48.3274 24.8204 48.4189C24.766 48.5103 24.6885 48.5855 24.5958 48.6367L1.32012 62.0973C0.925648 62.2923 0.592941 62.595 0.359643 62.9713C0.126344 63.3477 0.00176567 63.7826 2.46355e-09 64.2268H2.46355e-09Z" fill="url(#paint2_linear)"/>
<path fill-rule="evenodd" clip-rule="evenodd" d="M3.45497 75.5485L35.9932 56.612C36.4466 56.3483 36.8231 55.9681 37.0848 55.51C37.3465 55.0518 37.4841 54.5319 37.4838 54.0027V28.8816C37.4838 28.3525 37.346 27.8327 37.0844 27.3746C36.8227 26.9165 36.4463 26.5363 35.9932 26.2723L3.45497 7.32952C3.10492 7.12354 2.70711 7.01532 2.30219 7.0159C2.00591 7.04005 1.71356 7.10007 1.4314 7.19467L13.0925 0.401618C13.5433 0.138193 14.0547 -0.000488281 14.5753 -0.000488281C15.0959 -0.000488281 15.6073 0.138193 16.0581 0.401618L48.3423 19.197C48.7954 19.461 49.1717 19.8412 49.4334 20.2993C49.6951 20.7574 49.8329 21.2772 49.8328 21.8063V61.3791C49.8315 61.9067 49.6931 62.4247 49.4315 62.881C49.1699 63.3374 48.7942 63.7161 48.3423 63.979L16.3215 82.5988C15.8711 82.8601 15.361 82.9976 14.8418 82.9976C14.3226 82.9976 13.8125 82.8601 13.3621 82.5988L1.31055 75.6269C1.64713 75.7921 2.01857 75.8713 2.3924 75.8577C2.76622 75.844 3.13104 75.7379 3.45497 75.5485V75.5485Z" fill="url(#paint3_linear)"/>
<defs>
<linearGradient id="paint0_linear" x1="10.155" y1="71.719" x2="3.69703" y2="60.6713" gradientUnits="userSpaceOnUse">
<stop stop-color="#D9C185"/>
<stop offset="1" stop-color="#8E783E"/>
</linearGradient>
<linearGradient id="paint1_linear" x1="-0.76537" y1="32.7328" x2="9.81537" y2="10.315" gradientUnits="userSpaceOnUse">
<stop offset="0.18" stop-color="#D9C185"/>
<stop offset="1" stop-color="#907C44"/>
</linearGradient>
<linearGradient id="paint2_linear" x1="1.77876" y1="65.3966" x2="22.9022" y2="33.2589" gradientUnits="userSpaceOnUse">
<stop stop-color="#D9C185"/>
<stop offset="0.28" stop-color="#C8B176"/>
<stop offset="1" stop-color="#9F8951"/>
</linearGradient>
<linearGradient id="paint3_linear" x1="25.5655" y1="0.000181893" x2="25.5655" y2="83.0002" gradientUnits="userSpaceOnUse">
<stop stop-color="#D9C185"/>
<stop offset="0.23" stop-color="#CEB67A"/>
<stop offset="0.62" stop-color="#B0995E"/>
<stop offset="1" stop-color="#8E783E"/>
</linearGradient>
</defs>
</svg>
